# xmcd
# 
# Track frame offsets:
#     150
#     13644
#     26956
#     40300
#     54689
#     67236
#     83260
#     95457
#     109661
#     121838
#     137370
#     150279
#     162132
#     177103
#     190257
#     205721
#     216999
#     229965
#     243106
#     257283
#     271075
#     282394
#     297271
#     310620
# 
# Disc length: 4228
# 
# Revision: 1
# Processed by: cddbd v1.5.2PL0 Copyright (c) Steve Scherf et al.
# Submitted via: fre:ac v1.0.17
# 
DISCID=41108218
DTITLE=John Steinbeck - The Grapes of Wrath [CD09)
DYEAR=1939
DGENRE=Audiobook
TTITLE0=Chapter 18.05
TTITLE1=Chapter 18.06
TTITLE2=Chapter 18.07
TTITLE3=Chapter 18.08
TTITLE4=Chapter 18.09
TTITLE5=Chapter 18.10
TTITLE6=Chapter 18.11
TTITLE7=Chapter 18.12
TTITLE8=Chapter 18.13
TTITLE9=Chapter 18.14
TTITLE10=Chapter 18.15
TTITLE11=Chapter 18.16
TTITLE12=Chapter 18.17
TTITLE13=Chapter 18.18
TTITLE14=Chapter 18.19
TTITLE15=Chapter 18.20
TTITLE16=Chapter 18.21
TTITLE17=Chapter 18.22
TTITLE18=Chapter 18.23
TTITLE19=Chapter 18.24
TTITLE20=Chapter 18.25
TTITLE21=Chapter 18.26
TTITLE22=Chapter 18.27
TTITLE23=Chapter 18.28
EXTD=The Grapes of Wrath by John Steinbeck\nread by Dylan Baker recorded books 18 CDs\nnational folk country
EXTT0=
EXTT1=
EXTT2=
EXTT3=
EXTT4=
EXTT5=
EXTT6=
EXTT7=
EXTT8=
EXTT9=
EXTT10=
EXTT11=
EXTT12=
EXTT13=
EXTT14=
EXTT15=
EXTT16=
EXTT17=
EXTT18=
EXTT19=
EXTT20=
EXTT21=
EXTT22=
EXTT23=
PLAYORDER=
